<?xml version="1.0" encoding="utf-8"?>
<!-- Generator: Adobe Illustrator 18.1.1, SVG Export Plug-In . SVG Version: 6.00 Build 0)  -->
<svg version="1.1" id="Layer_2" xmlns="http://www.w3.org/2000/svg" xmlns:xlink="http://www.w3.org/1999/xlink" x="0px" y="0px"
	 viewBox="-0.3 321.8 1000.5 355.5" enable-background="new -0.3 321.8 1000.5 355.5" xml:space="preserve">
<g id="KILLHOPE">
	<path fill="#FFFFFF" d="M202.7,323h29.4v136.8h66.4v24.6h-95.8V323z"/>
	<path fill="#FFFFFF" d="M320.7,323h29.4v136.8h66.4v24.6h-95.8L320.7,323L320.7,323z"/>
	<path fill="#FFFFFF" d="M468.4,323v64.7h68.3V323h29.4v161.4h-29.4v-71.2h-68.3v71.2H439V323H468.4z"/>
	<path fill="#FFFFFF" d="M743.2,402c0,52.4-32.9,82.4-77.4,82.4c-45.6,0-74.3-33.6-74.3-79.6c0-48,31.2-81.9,76.7-81.9
		C715.4,323,743.2,357.6,743.2,402z M622.7,404.4c0,31.8,16.5,57.1,44.8,57.1c28.5,0,44.6-25.5,44.6-58.3c0-29.4-15-57.3-44.6-57.3
		C638.3,345.9,622.7,372.2,622.7,404.4z"/>
	<path fill="#FFFFFF" d="M768.6,325.1c10.6-1.9,25.2-3.3,45-3.3c21.6,0,37.3,4.6,47.7,13.1c9.6,7.9,15.8,20.6,15.8,35.7
		c0,15.4-4.8,28.1-13.9,36.7c-11.7,11.7-30.2,17.3-51,17.3c-5.5,0-10.6-0.2-14.4-1v60.8h-29.2V325.1z M797.8,400.3
		c3.6,1,8.4,1.2,14.4,1.2c22.1,0,35.4-10.8,35.4-29.7c0-17.9-12.5-27.5-32.9-27.5c-8.1,0-13.9,0.7-17,1.4V400.3z"/>
	<path fill="#FFFFFF" d="M992.9,412.8H932v47.5h68.1v24.2h-97.5V323h93.9v24.2H932v41.7h60.8L992.9,412.8L992.9,412.8z"/>
</g>
<g id="MUSEIUM">
	<path fill="#FFFFFF" d="M76,639.9c0.2,0.4,0.4,0.7,0.6,1.1c0.2,0.3,0.4,0.7,0.6,1.3c0.2-0.5,0.4-1,0.6-1.3s0.4-0.7,0.6-1.1
		l71.3-124c0.4-0.6,1-1,1.6-1h1V677H150V522.2c0-0.4,0-0.7,0-1.2c0-0.4,0-0.7,0.1-1.2l-71,123.7c-0.5,0.7-1.1,1.2-1.6,1.2h-0.7
		c-0.5,0-1.1-0.4-1.6-1.2L1.9,520C2,520.4,2,520.7,2,521c0,0.3,0,0.7,0,1.1V677h-2.3V514.9h1c0.7,0,1.3,0.3,1.6,1L76,639.9z"/>
	<path fill="#FFFFFF" d="M273.5,674.5c8.7,0,16.5-1.6,23.5-4.7c6.9-3.1,12.8-7.4,17.5-12.8c4.8-5.4,8.4-11.7,11-19
		c2.6-7.3,3.8-15,3.8-23.3V512.9h2.8v101.9c0,8.5-1.4,16.6-4.1,24.2c-2.7,7.6-6.6,14.2-11.7,19.8c-5.1,5.7-11.2,10.1-18.5,13.3
		c-7.3,3.3-15.4,4.9-24.3,4.9s-17.2-1.6-24.3-4.9c-7.3-3.3-13.3-7.8-18.5-13.3c-5.1-5.7-9-12.3-11.7-19.8
		c-2.7-7.6-4.1-15.6-4.1-24.2V512.9h2.8v101.7c0,8.2,1.3,16,3.8,23.4c2.6,7.3,6.2,13.7,11,19.1c4.8,5.4,10.7,9.7,17.5,12.8
		C256.9,673,264.7,674.5,273.5,674.5z"/>
	<path fill="#FFFFFF" d="M468.8,528c-0.4,0.4-0.9,0.7-1.3,0.7c-0.7,0-1.7-0.7-3.2-2.3c-1.4-1.6-3.5-3.3-6.3-5.1s-6.3-3.5-10.6-5.1
		c-4.4-1.6-9.7-2.3-16.2-2.3c-6.6,0-12.5,1.1-17.6,3.1c-5.1,2-9.4,4.8-12.9,8.1c-3.5,3.4-6.1,7.4-7.9,11.8c-1.8,4.5-2.7,9.2-2.7,14
		c0,6.3,1.2,11.4,3.6,15.6s5.7,7.7,9.6,10.6c3.9,2.9,8.4,5.2,13.6,7.1c5.1,1.9,10.2,3.7,15.5,5.4s10.5,3.5,15.5,5.5
		c5.1,1.9,9.6,4.4,13.6,7.4c3.9,3,7.1,6.6,9.6,11c2.5,4.4,3.6,9.8,3.6,16.4c0,6.6-1.1,12.8-3.3,18.6s-5.4,10.8-9.7,15
		c-4.3,4.3-9.5,7.7-15.6,10.1c-6.2,2.5-13.2,3.7-21,3.7c-5.4,0-10.4-0.5-14.7-1.5c-4.4-1-8.3-2.3-11.8-4.2c-3.6-1.8-6.9-4.1-9.9-6.6
		c-3-2.6-5.9-5.5-8.6-8.9l0.4-0.4c0.2-0.2,0.4-0.4,0.5-0.5s0.4-0.2,0.9-0.2c0.4,0,1.2,0.5,2,1.5c0.9,1,2.1,2.2,3.6,3.7
		c1.5,1.5,3.4,3.1,5.5,4.8c2.1,1.7,4.8,3.3,7.9,4.8c3.1,1.5,6.6,2.8,10.6,3.7c3.9,1,8.5,1.5,13.6,1.5c7.5,0,14.2-1.2,20-3.6
		c5.9-2.3,10.8-5.7,14.8-9.7s7.1-8.7,9.3-14.2c2.1-5.4,3.2-11.2,3.2-17.3c0-5.1-0.7-9.5-2.3-13.2c-1.6-3.7-3.7-6.9-6.4-9.6
		c-2.7-2.7-5.9-4.9-9.4-6.8c-3.6-1.9-7.5-3.6-11.5-5.1c-4.1-1.5-8.2-2.9-12.5-4.2c-4.3-1.3-8.4-2.7-12.5-4.3
		c-4.1-1.5-7.9-3.3-11.5-5.2s-6.7-4.4-9.4-7.1c-2.7-2.8-4.8-6.2-6.4-10c-1.6-3.9-2.3-8.5-2.3-13.9c0-5.1,1-10.1,2.9-14.8
		c1.9-4.7,4.7-9,8.4-12.6c3.7-3.6,8.3-6.5,13.8-8.6s11.6-3.2,18.7-3.2c7.9,0,14.8,1.3,20.9,3.8c6.1,2.6,11.7,6.6,17.1,12.2
		L468.8,528z"/>
	<path fill="#FFFFFF" d="M616.8,514.9v2.6h-92v76h78v2.6h-78v78.5h92.2l-0.2,2.6h-94.8V514.9H616.8z"/>
	<path fill="#FFFFFF" d="M726.5,674.5c8.7,0,16.5-1.6,23.5-4.7s12.8-7.4,17.5-12.8c4.8-5.4,8.4-11.7,11-19c2.6-7.3,3.8-15,3.8-23.3
		V512.9h2.8v101.9c0,8.5-1.4,16.6-4.1,24.2c-2.7,7.6-6.6,14.2-11.7,19.8c-5.1,5.7-11.2,10.1-18.5,13.3c-7.3,3.3-15.4,4.9-24.3,4.9
		c-9.1,0-17.2-1.6-24.3-4.9c-7.3-3.3-13.3-7.8-18.5-13.3c-5.1-5.7-9-12.3-11.7-19.8c-2.7-7.6-4.1-15.6-4.1-24.2V512.9h2.8v101.7
		c0,8.2,1.3,16,3.8,23.4c2.6,7.3,6.2,13.7,11,19.1c4.8,5.4,10.7,9.7,17.5,12.8C710,673,717.9,674.5,726.5,674.5z"/>
	<path fill="#FFFFFF" d="M923.8,639.9c0.2,0.4,0.4,0.7,0.6,1.1c0.2,0.3,0.4,0.7,0.6,1.3c0.2-0.5,0.4-1,0.6-1.3s0.4-0.7,0.6-1.1
		l71.3-124c0.4-0.6,1-1,1.6-1h1V677h-2.3V522.2c0-0.4,0-0.7,0-1.2c0-0.4,0-0.7,0.1-1.2l-71,123.7c-0.5,0.7-1.1,1.2-1.6,1.2h-0.7
		c-0.5,0-1.1-0.4-1.6-1.2L849.8,520c0.1,0.4,0.1,0.7,0.1,1.1c0,0.3,0,0.7,0,1.1V677h-2.3V514.9h1c0.7,0,1.3,0.3,1.6,1L923.8,639.9z"
		/>
</g>
<g>
	<path fill="#FFFFFF" d="M111.8,385.7h0.1V323h-8.5v28H69.6v-28H61v62.6h8.5v-28.5h33.8v28.6H61l-19.3,34.8
		c-3.8,3.3-7.9,6.8-11.7,10.7h-1.2v-45.5v-55.6h20.3V323H0v7.1h20.3v55.6H0v98.9h29.2v-34.8l14.4-10.6l45.8,45.2h34.5l-59.2-56.8
		L111.8,385.7z"/>
	<polygon fill="#FFFFFF" points="168.9,329.9 168.9,323 139.5,323 139.5,385.7 139.5,484.5 168.9,484.5 168.9,385.7 168.9,378.8 
		146,378.8 146,357.3 164.5,357.3 164.5,350.7 146,350.7 146,329.9 	"/>
</g>
</svg>
