<svg version="1.1" xmlns="http://www.w3.org/2000/svg" x="0px" y="0px"
	 viewBox="0 0 250 793.3">
<g id="Layer_2">
	<rect x="0" y="0" width="250" height="793.3"/>
</g>
<g id="Layer_1">
	<path id="path5820-9" fill="#808080" stroke="#808080" stroke-width="1.8045" d="M58.3,646.1
		h78.2"/>
	<path id="path5820" fill="#808080" stroke="#808080" stroke-width="1.8045" d="M58.1,475.9h78.2"
		/>
	<rect id="rect4982-6-3" x="58.6" y="476.2" fill="#FF0000" width="78.2" height="116.8"/>

		<linearGradient id="path4597-2-1-5_1_" gradientUnits="userSpaceOnUse" x1="567.4164" y1="535.6314" x2="567.4164" y2="554.0131" gradientTransform="matrix(0.9023 0 0 -0.9023 -412.6601 1032.7783)">
		<stop  offset="0" style="stop-color:#B3B3B3"/>
		<stop  offset="1" style="stop-color:#B3B3B3;stop-opacity:0"/>
	</linearGradient>
	<path id="path4597-2-1-5" fill="url(#path4597-2-1-5_1_)" d="
		M98.4,561.6l43.7-40.2c-18.7-26-81.7-12.3-85.7-4.1L98.4,561.6z"/>
	<path id="path3338-4-1-7-0" fill="none" stroke="#000000" stroke-width="2.5859" d="M66.3,577.6
		l63.1-30.1"/>

		<path id="path3109-23-61-8-6-0-9" stroke="#FFFFFF" stroke-width="0.9827" d="
		M96.6,548.3l-1.8,0l3.8,8l4-7.9l-1.9,0l0.3-21.8l-4.2-0.1L96.6,548.3z"/>

		<linearGradient id="path4597-0-3-8-6_1_" gradientUnits="userSpaceOnUse" x1="517.7852" y1="-805.8071" x2="520.0353" y2="-781.0117" gradientTransform="matrix(0.9001 6.266455e-02 -6.266455e-02 0.9001 -420.3545 1267.2596)">
		<stop  offset="0" style="stop-color:#B3B3B3"/>
		<stop  offset="1" style="stop-color:#B3B3B3;stop-opacity:0"/>
	</linearGradient>
	<path id="path4597-0-3-8-6" fill="url(#path4597-0-3-8-6_1_)" d="
		M98.9,561.8l40.8,43.1c-20.5,24.7-82.3,6.6-85.7-1.8L98.9,561.8z"/>

		<path id="path3109-23-61-1-6-3-4-7" stroke="#FFFFFF" stroke-width="0.9827" d="
		M96.5,574l-1.8,0l3.8-8l4,7.9l-1.9,0l0.3,21.8l-4.2,0.1L96.5,574z"/>

		<path id="path3400-5-83-8-2" fill="none" stroke="#000000" stroke-width="1.4133" stroke-dasharray="1.4133,2.8266" d="
		M69.3,589l57.8-54.5"/>

		<path id="path3400-7-0-2-8-2" fill="none" stroke="#000000" stroke-width="1.4133" stroke-dasharray="1.4133,2.8266" d="
		M72.5,534.1l54.9,57.4"/>
	<path id="path6041-1-8" fill="none" stroke="#000000" stroke-width="0.9023" d="M101.5,563.4
		l19-9.1l-7.9,6.7"/>
	<path id="path6041-1-3-2" fill="none" stroke="#000000" stroke-width="0.9023" d="M95.8,561
		l-19,9.1l7.9-6.7"/>
	<rect id="rect3508-8" x="58" y="23" fill="#DCDCDC" width="78.3" height="147.7"/>

		<path id="path4365-3-1" fill="none" stroke="#FF0000" stroke-width="0.9023" d="
		M71,27.8c-1.5,3-2.2,5.4-0.2,8.2c2.8,3.9,0.5,6.6-1.2,9.5"/>

		<path id="path4365-9-6-0" fill="none" stroke="#FF0000" stroke-width="0.9023" d="
		M82.1,27.6c-1.5,3-2.2,5.4-0.2,8.2c2.8,3.9,0.5,6.6-1.2,9.5"/>

		<path id="path4365-4-2-9" fill="none" stroke="#FF0000" stroke-width="0.9023" d="
		M92.7,27.5c-1.5,3-2.2,5.4-0.2,8.2c2.8,3.9,0.5,6.6-1.2,9.5"/>

		<path id="path4365-3-4-24" fill="none" stroke="#FF0000" stroke-width="0.9023" d="
		M103,27.5c-1.5,3-2.2,5.4-0.2,8.2c2.8,3.9,0.5,6.6-1.2,9.5"/>

		<path id="path4365-9-6-9-91" fill="none" stroke="#FF0000" stroke-width="0.9023" d="
		M114.1,27.2c-1.5,3-2.2,5.4-0.2,8.2c2.8,3.9,0.5,6.6-1.2,9.5"/>

		<path id="path4365-4-2-8-5" fill="none" stroke="#FF0000" stroke-width="0.9023" d="
		M124.6,27.1c-1.5,3-2.2,5.4-0.2,8.2c2.8,3.9,0.5,6.6-1.2,9.5"/>

		<path id="path4365-6-9-7" fill="none" stroke="#FF0000" stroke-width="0.9023" d="
		M86.6,48.2c1.5,3,2.2,5.4,0.2,8.2c-2.8,3.9-0.5,6.6,1.2,9.5"/>

		<path id="path4365-6-0-8-3" fill="none" stroke="#FF0000" stroke-width="0.9023" d="
		M76.1,48.5c1.5,3,2.2,5.4,0.2,8.2c-2.8,3.9-0.5,6.6,1.2,9.5"/>

		<path id="path4365-3-3-3" fill="none" stroke="#FF0000" stroke-width="0.9023" d="
		M71.3,67.1c-1.5,3-2.2,5.4-0.2,8.2c2.8,3.9,0.5,6.6-1.2,9.5"/>

		<path id="path4365-9-6-8-4" fill="none" stroke="#FF0000" stroke-width="0.9023" d="
		M82.4,66.9c-1.5,3-2.2,5.4-0.2,8.2c2.8,3.9,0.5,6.6-1.2,9.5"/>

		<path id="path4365-4-2-6-2" fill="none" stroke="#FF0000" stroke-width="0.9023" d="
		M93,66.8c-1.5,3-2.2,5.4-0.2,8.2c2.8,3.9,0.5,6.6-1.2,9.5"/>

		<path id="path4365-6-4-9-2" fill="none" stroke="#FF0000" stroke-width="0.9023" d="
		M97.2,48.4c1.5,3,2.2,5.4,0.2,8.2c-2.8,3.9-0.5,6.6,1.2,9.5"/>

		<path id="path4365-6-4-5-8-0" fill="none" stroke="#FF0000" stroke-width="0.9023" d="
		M65.1,48.9c1.5,3,2.2,5.4,0.2,8.2c-2.8,3.9-0.5,6.6,1.2,9.5"/>

		<path id="path4365-6-2-3-1" fill="none" stroke="#FF0000" stroke-width="0.9023" d="
		M118.6,47.9c1.5,3,2.2,5.4,0.2,8.2c-2.8,3.9-0.5,6.6,1.2,9.5"/>

		<path id="path4365-6-0-1-8-2" fill="none" stroke="#FF0000" stroke-width="0.9023" d="
		M108,48.2c1.5,3,2.2,5.4,0.2,8.2c-2.8,3.9-0.5,6.6,1.2,9.5"/>

		<path id="path4365-3-4-2-7" fill="none" stroke="#FF0000" stroke-width="0.9023" d="
		M103.3,66.8c-1.5,3-2.2,5.4-0.2,8.2c2.8,3.9,0.5,6.6-1.2,9.5"/>

		<path id="path4365-9-6-9-6-7" fill="none" stroke="#FF0000" stroke-width="0.9023" d="
		M114.4,66.5c-1.5,3-2.2,5.4-0.2,8.2c2.8,3.9,0.5,6.6-1.2,9.5"/>

		<path id="path4365-4-2-8-2-0" fill="none" stroke="#FF0000" stroke-width="0.9023" d="
		M124.9,66.4c-1.5,3-2.2,5.4-0.2,8.2c2.8,3.9,0.5,6.6-1.2,9.5"/>

		<path id="path4365-6-4-2-7-2" fill="none" stroke="#FF0000" stroke-width="0.9023" d="
		M129.2,48c1.5,3,2.2,5.4,0.2,8.2c-2.8,3.9-0.5,6.6,1.2,9.5"/>

		<path id="path4365-6-5-4" fill="none" stroke="#FF0000" stroke-width="0.9023" d="
		M86.1,86.7c1.5,3,2.2,5.4,0.2,8.2c-2.8,3.9-0.5,6.6,1.2,9.5"/>

		<path id="path4365-6-0-7-1" fill="none" stroke="#FF0000" stroke-width="0.9023" d="
		M75.6,87c1.5,3,2.2,5.4,0.2,8.2c-2.8,3.9-0.5,6.6,1.2,9.5"/>

		<path id="path4365-3-8-0" fill="none" stroke="#FF0000" stroke-width="0.9023" d="
		M70.8,105.6c-1.5,3-2.2,5.4-0.2,8.2c2.8,3.9,0.5,6.6-1.2,9.5"/>

		<path id="path4365-9-6-2-3" fill="none" stroke="#FF0000" stroke-width="0.9023" d="
		M81.9,105.3c-1.5,3-2.2,5.4-0.2,8.2c2.8,3.9,0.5,6.6-1.2,9.5"/>

		<path id="path4365-4-2-7-7" fill="none" stroke="#FF0000" stroke-width="0.9023" d="
		M92.5,105.2c-1.5,3-2.2,5.4-0.2,8.2c2.8,3.9,0.5,6.6-1.2,9.5"/>

		<path id="path4365-6-4-8-3" fill="none" stroke="#FF0000" stroke-width="0.9023" d="
		M96.7,86.8c1.5,3,2.2,5.4,0.2,8.2c-2.8,3.9-0.5,6.6,1.2,9.5"/>

		<path id="path4365-6-4-5-0-9" fill="none" stroke="#FF0000" stroke-width="0.9023" d="
		M64.6,87.3c1.5,3,2.2,5.4,0.2,8.2c-2.8,3.9-0.5,6.6,1.2,9.5"/>

		<path id="path4365-6-2-2-5" fill="none" stroke="#FF0000" stroke-width="0.9023" d="
		M118.1,86.4c1.5,3,2.2,5.4,0.2,8.2c-2.8,3.9-0.5,6.6,1.2,9.5"/>

		<path id="path4365-6-0-1-0-9" fill="none" stroke="#FF0000" stroke-width="0.9023" d="
		M107.5,86.6c1.5,3,2.2,5.4,0.2,8.2c-2.8,3.9-0.5,6.6,1.2,9.5"/>

		<path id="path4365-3-4-8-7" fill="none" stroke="#FF0000" stroke-width="0.9023" d="
		M102.8,105.2c-1.5,3-2.2,5.4-0.2,8.2c2.8,3.9,0.5,6.6-1.2,9.5"/>

		<path id="path4365-9-6-9-9-2" fill="none" stroke="#FF0000" stroke-width="0.9023" d="
		M113.9,105c-1.5,3-2.2,5.4-0.2,8.2c2.8,3.9,0.5,6.6-1.2,9.5"/>

		<path id="path4365-4-2-8-28-0" fill="none" stroke="#FF0000" stroke-width="0.9023" d="
		M124.4,104.9c-1.5,3-2.2,5.4-0.2,8.2c2.8,3.9,0.5,6.6-1.2,9.5"/>

		<path id="path4365-6-4-2-2-2" fill="none" stroke="#FF0000" stroke-width="0.9023" d="
		M128.7,86.5c1.5,3,2.2,5.4,0.2,8.2c-2.8,3.9-0.5,6.6,1.2,9.5"/>

		<path id="path4365-6-9-0-8" fill="none" stroke="#FF0000" stroke-width="0.9023" d="
		M86.4,126c1.5,3,2.2,5.4,0.2,8.2c-2.8,3.9-0.5,6.6,1.2,9.5"/>

		<path id="path4365-6-0-8-5-6" fill="none" stroke="#FF0000" stroke-width="0.9023" d="
		M75.9,126.3c1.5,3,2.2,5.4,0.2,8.2c-2.8,3.9-0.5,6.6,1.2,9.5"/>

		<path id="path4365-3-3-5-7" fill="none" stroke="#FF0000" stroke-width="0.9023" d="
		M71.1,144.9c-1.5,3-2.2,5.4-0.2,8.2c2.8,3.9,0.5,6.6-1.2,9.5"/>

		<path id="path4365-9-6-8-2-0" fill="none" stroke="#FF0000" stroke-width="0.9023" d="
		M82.2,144.7c-1.5,3-2.2,5.4-0.2,8.2c2.8,3.9,0.5,6.6-1.2,9.5"/>

		<path id="path4365-4-2-6-7-8" fill="none" stroke="#FF0000" stroke-width="0.9023" d="
		M92.8,144.5c-1.5,3-2.2,5.4-0.2,8.2c2.8,3.9,0.5,6.6-1.2,9.5"/>

		<path id="path4365-6-4-9-6-1" fill="none" stroke="#FF0000" stroke-width="0.9023" d="
		M97,126.1c1.5,3,2.2,5.4,0.2,8.2c-2.8,3.9-0.5,6.6,1.2,9.5"/>

		<path id="path4365-6-4-5-8-7-8" fill="none" stroke="#FF0000" stroke-width="0.9023" d="
		M64.9,126.6c1.5,3,2.2,5.4,0.2,8.2c-2.8,3.9-0.5,6.6,1.2,9.5"/>

		<path id="path4365-6-2-3-8-3" fill="none" stroke="#FF0000" stroke-width="0.9023" d="
		M118.4,125.7c1.5,3,2.2,5.4,0.2,8.2c-2.8,3.9-0.5,6.6,1.2,9.5"/>

		<path id="path4365-6-0-1-8-7-0" fill="none" stroke="#FF0000" stroke-width="0.9023" d="
		M107.8,125.9c1.5,3,2.2,5.4,0.2,8.2c-2.8,3.9-0.5,6.6,1.2,9.5"/>

		<path id="path4365-3-4-2-8-3" fill="none" stroke="#FF0000" stroke-width="0.9023" d="
		M103.1,144.5c-1.5,3-2.2,5.4-0.2,8.2c2.8,3.9,0.5,6.6-1.2,9.5"/>

		<path id="path4365-9-6-9-6-1-6" fill="none" stroke="#FF0000" stroke-width="0.9023" d="
		M114.2,144.3c-1.5,3-2.2,5.4-0.2,8.2c2.8,3.9,0.5,6.6-1.2,9.5"/>

		<path id="path4365-4-2-8-2-6-2" fill="none" stroke="#FF0000" stroke-width="0.9023" d="
		M124.7,144.2c-1.5,3-2.2,5.4-0.2,8.2c2.8,3.9,0.5,6.6-1.2,9.5"/>

		<path id="path4365-6-4-2-7-0-0" fill="none" stroke="#FF0000" stroke-width="0.9023" d="
		M129,125.8c1.5,3,2.2,5.4,0.2,8.2c-2.8,3.9-0.5,6.6,1.2,9.5"/>

		<rect id="rect3145-7-9-2-3-2-9-9" x="21.4" y="645.3" fill="#A4E0CD" stroke="#000000" stroke-width="0.9056" width="14.8" height="57.9"/>

		<rect id="rect3145-7-9-2-3-2-9" x="21.4" y="703.2" fill="#7FD1B7" stroke="#000000" stroke-width="0.9016" width="14.8" height="38.7"/>

		<rect id="rect3145-7-9-2-3-2" x="21.3" y="741.8" fill="#60B79C" stroke="#000000" stroke-width="0.9016" width="14.9" height="47.7"/>
	<rect id="rect3145-7-1" x="21.4" y="349.3" fill="#E4CEA9" stroke="#000000" stroke-width="0.9023" width="14.9" height="72.3"/>
	<rect id="rect3145-7-9-2" x="21.4" y="421.6" fill="#D8B881" stroke="#000000" stroke-width="0.9023" width="14.9" height="43.3"/>
	<rect id="rect3145-7-9-2-3" x="21.5" y="465" fill="#CAA35D" stroke="#000000" stroke-width="0.9038" width="14.7" height="70.9"/>
	<rect id="rect3145-7-9-7" x="21.5" y="189.9" fill="#99E8DF" stroke="#000000" stroke-width="0.9023" width="15" height="74"/>
	<rect id="rect3145" x="0.6" y="28.8" fill="#FF3E3E" stroke="#000000" stroke-width="0.9023" width="21" height="161.1"/>
	<text transform="matrix(0 -1 1 0 16.7579 142.7571)" font-family="'HelveticaNeue'" font-size="16.2409">PERMIAN</text>
	<rect id="rect3145-7" x="21.5" y="28.8" fill="#FF9B9B" stroke="#000000" stroke-width="0.9013" width="14.9" height="81.1"/>
	<text transform="matrix(0 -1 1 0 32.0417 77.9309)" font-family="'HelveticaNeue'" font-size="9.0227">Upper</text>
	<rect id="rect3145-7-9" x="21.5" y="109.7" fill="#F96D6D" stroke="#000000" stroke-width="0.9023" width="14.9" height="80.2"/>
	<text transform="matrix(0 -1 1 0 31.6384 159.1633)" font-family="'HelveticaNeue'" font-size="9.0227">Lower</text>
	<text transform="matrix(1 0 0 1 40.6693 31.1425)" fill="#FFFFFF" font-family="'HelveticaNeue'" font-size="8.1205">252</text>
	<text transform="matrix(1 0 0 1 40.7306 112.9256)" fill="#FFFFFF" font-family="'HelveticaNeue'" font-size="8.1205">272</text>
	<text transform="matrix(1 0 0 1 40.5514 191.9468)" fill="#FFFFFF" font-family="'HelveticaNeue'" font-size="8.1205">299</text>
	<rect id="rect3145-8" x="0.6" y="189.9" fill="#5A9D97" stroke="#000000" stroke-width="0.9023" width="21" height="159.7"/>
	<text transform="matrix(0 -1 1 0 16.7793 335.8216)" font-family="'HelveticaNeue'" font-size="16.2409">CARBONIFEROUS</text>
	<text transform="matrix(0 -1 1 0 31.5836 260.927)" font-family="'HelveticaNeue'" font-size="9.0227">Pennsylvanian</text>

		<rect id="rect3145-7-9-7-1" x="21.5" y="263.9" fill="#73D1C8" stroke="#000000" stroke-width="0.9023" width="14.9" height="85.6"/>
	<text transform="matrix(0 -1 1 0 31.9439 338.5579)" font-family="'HelveticaNeue'" font-size="9.0227">Mississippian</text>
	<text transform="matrix(1 0 0 1 41.1376 266.7937)" fill="#FFFFFF" font-family="'HelveticaNeue'" font-size="8.1205">232</text>
	<text transform="matrix(1 0 0 1 40.5809 352.6709)" fill="#FFFFFF" font-family="'HelveticaNeue'" font-size="8.1205">359</text>
	<rect id="rect3145-2" x="0.6" y="349.5" fill="#C99B48" stroke="#000000" stroke-width="0.9023" width="20.9" height="186.3"/>
	<text transform="matrix(0 -1 1 0 16.6871 488.7786)" font-family="'HelveticaNeue'" font-size="16.2409">DEVONIAN</text>
	<text transform="matrix(0 -1 1 0 31.9708 456.179)" font-family="'HelveticaNeue'" font-size="9.0227">Middle</text>
	<text transform="matrix(0 -1 1 0 31.5676 398.3645)" font-family="'HelveticaNeue'" font-size="9.0227">Upper</text>
	<text transform="matrix(1 0 0 1 40.6598 424.1471)" fill="#FFFFFF" font-family="'HelveticaNeue'" font-size="8.1205">383</text>
	<text transform="matrix(1 0 0 1 40.6743 539.0435)" fill="#FFFFFF" font-family="'HelveticaNeue'" font-size="8.1205">419</text>
	<text transform="matrix(1 0 0 1 40.6187 352.7676)" fill="#FFFFFF" font-family="'HelveticaNeue'" font-size="8.1205">359</text>
	<text transform="matrix(1 0 0 1 40.4912 467.8222)" fill="#FFFFFF" font-family="'HelveticaNeue'" font-size="8.1205">393</text>
	<text transform="matrix(0 -1 1 0 31.9727 513.134)" font-family="'HelveticaNeue'" font-size="9.0227">Lower</text>
	<rect id="rect3145-2-1" x="0.6" y="535.9" fill="#BEDCDC" stroke="#000000" stroke-width="0.9018" width="35.6" height="109.2"/>
	<text transform="matrix(0 -1 1 0 24.7968 624.9719)" font-family="'HelveticaNeue'" font-size="16.2409">SILURIAN</text>
	<text transform="matrix(1 0 0 1 40.7656 646.8473)" fill="#FFFFFF" font-family="'HelveticaNeue'" font-size="8.1205">443</text>
	<rect id="rect3145-2-11" x="0.5" y="645.2" fill="#38A381" stroke="#000000" stroke-width="0.9023" width="21" height="144.3"/>
	<text transform="matrix(0 -1 1 0 16.5987 772.0168)" font-family="'HelveticaNeue'" font-size="16.2409">ORDOVICIAN</text>
	<text transform="matrix(0 -1 1 0 31.8818 779.97)" font-family="'HelveticaNeue'" font-size="9.0227">Lower</text>
	<text transform="matrix(0 -1 1 0 32.6745 737.4895)" font-family="'HelveticaNeue'" font-size="9.0227">Middle</text>
	<text transform="matrix(0 -1 1 0 31.7751 685.3372)" font-family="'HelveticaNeue'" font-size="9.0227">Upper</text>
	<text transform="matrix(1 0 0 1 40.6735 705.7489)" fill="#FFFFFF" font-family="'HelveticaNeue'" font-size="8.1205">458</text>
	<text transform="matrix(1 0 0 1 40.9523 744.3142)" fill="#FFFFFF" font-family="'HelveticaNeue'" font-size="8.1205">470</text>
	<text transform="matrix(1 0 0 1 40.8879 791.5145)" fill="#FFFFFF" font-family="'HelveticaNeue'" font-size="8.1205">485</text>
	<g id="g4683" transform="matrix(0.90227422,0,0,0.90227422,-420.79486,27.873774)">

			<linearGradient id="path4597-0_1_" gradientUnits="userSpaceOnUse" x1="1043.5273" y1="-924.765" x2="1043.5273" y2="-906.3834" gradientTransform="matrix(0.9001 6.266455e-02 -6.266455e-02 0.9001 -423.7564 1092.0244)">
			<stop  offset="0" style="stop-color:#B3B3B3"/>
			<stop  offset="1" style="stop-color:#B3B3B3;stop-opacity:0"/>
		</linearGradient>
		<path id="path4597-0" fill="url(#path4597-0_1_)" d="M573.4,311.6
			l45.2,47.8c-22.7,27.4-91.2,7.3-95-2L573.4,311.6z"/>

			<linearGradient id="path4597_1_" gradientUnits="userSpaceOnUse" x1="1095.2451" y1="562.7532" x2="1095.2451" y2="581.1349" gradientTransform="matrix(0.9023 0 0 -0.9023 -414.4374 805.434)">
			<stop  offset="0" style="stop-color:#B3B3B3"/>
			<stop  offset="1" style="stop-color:#B3B3B3;stop-opacity:0"/>
		</linearGradient>
		<path id="path4597" fill="url(#path4597_1_)" d="M572.8,311.1
			l48.4-44.5c-20.8-28.9-90.5-13.6-94.9-4.6L572.8,311.1z"/>
		<path id="path3338-4" fill="none" stroke="#FFFFFF" stroke-width="1.5664" d="M534.9,311.8h77.5
			"/>

			<path id="path3109-23-61-8" stroke="#FFFFFF" stroke-miterlimit="10" d="
			M570.7,281l-2,0l4.2-8.9l4.4,8.7l-2.1,0l0.3,24.1l-4.6,0.1L570.7,281z"/>

			<path id="path3109-23-61-1-6" stroke="#FFFFFF" stroke-width="1.0891" d="
			M570.6,340.1l-2,0l4.2,8.9l4.4-8.7l-2.1,0l0.3-24.1l-4.6-0.1L570.6,340.1z"/>

			<path id="path3400-5" fill="none" stroke="#000000" stroke-width="1.5664" stroke-dasharray="1.5664,3.1328" d="
			M540.5,341.4l64.1-60.4"/>

			<path id="path3400-7-0" fill="none" stroke="#000000" stroke-width="1.5664" stroke-dasharray="1.5664,3.1328" d="
			M544,280.7l60.8,63.7"/>
	</g>
	<g id="g4770" transform="matrix(0.90227422,0,0,0.90227422,-415.23968,17.665705)">

			<linearGradient id="path4597-0-6_1_" gradientUnits="userSpaceOnUse" x1="1041.1353" y1="-913.4513" x2="1041.1353" y2="-895.0696" gradientTransform="matrix(0.9001 6.266455e-02 -6.266455e-02 0.9001 -423.208 1000.0846)">
			<stop  offset="0" style="stop-color:#B3B3B3"/>
			<stop  offset="1" style="stop-color:#B3B3B3;stop-opacity:0"/>
		</linearGradient>
		<path id="path4597-0-6" fill="url(#path4597-0-6_1_)" d="
			M567.5,228.7l36.5,59.1c-22.7,27.4-68.2,12.3-72,3L567.5,228.7z"/>

			<linearGradient id="path4597-4_1_" gradientUnits="userSpaceOnUse" x1="1084.3779" y1="574.067" x2="1084.3779" y2="592.4486" gradientTransform="matrix(0.9023 0 0 -0.9023 -414.5846 733.4998)">
			<stop  offset="0" style="stop-color:#B3B3B3"/>
			<stop  offset="1" style="stop-color:#B3B3B3;stop-opacity:0"/>
		</linearGradient>
		<path id="path4597-4" fill="url(#path4597-4_1_)" d="M567.1,229
			l27.9-52.8c-20.8-28.9-58-16.9-62.4-7.8L567.1,229z"/>
		<path id="path3338-4-6" fill="none" stroke="#FFFFFF" stroke-width="1.5664" d="M529.2,229.7
			h77.5"/>

			<path id="path3109-23-61-8-8" stroke="#000000" stroke-width="1.0891" d="
			M565,214.2l-2,0l4.2,8.9l4.4-8.7l-2.1,0l0.3-24.1l-4.6-0.1L565,214.2z"/>

			<path id="path3109-23-61-1-6-9" stroke="#000000" stroke-miterlimit="10" d="
			M569.5,242.7l2,0l-4.2-8.9l-4.4,8.7l2.1,0l-0.3,24.1l4.6,0.1L569.5,242.7z"/>

			<path id="path3400-5-8" fill="none" stroke="#000000" stroke-width="1.5664" stroke-dasharray="1.5664,3.1328" d="
			M546.2,268l41.3-77.8"/>

			<path id="path3400-7-0-3" fill="none" stroke="#000000" stroke-width="1.5664" stroke-dasharray="1.5664,3.1328" d="
			M546.3,192.5l44.9,75.7"/>
	</g>
	<text transform="matrix(1 0 0 1 82.2051 9.5797)" fill="#FFFFFF" font-family="'HelveticaNeue'" font-size="8.1205">Tectonic</text>
	<text transform="matrix(1 0 0 1 85.5179 19.7303)" fill="#FFFFFF" font-family="'HelveticaNeue'" font-size="8.1205">Setting</text>
	<text transform="matrix(1 0 0 1 38.5685 9.198)" fill="#FFFFFF" font-family="'HelveticaNeue'" font-size="8.1205">Age</text>
	<text transform="matrix(1 0 0 1 36.7386 19.3486)" fill="#FFFFFF" font-family="'HelveticaNeue'" font-size="8.1205">(myr)</text>
	<text transform="matrix(1 0 0 1 160.8064 9.5089)" fill="#FFFFFF" font-family="'HelveticaNeue'" font-size="8.1205">Tectonic</text>
	<text transform="matrix(1 0 0 1 166.635 19.6595)" fill="#FFFFFF" font-family="'HelveticaNeue'" font-size="8.1205">Event</text>

		<path id="path4847" fill="none" stroke="#000000" stroke-width="0.9023" d="
		M36.4,29.2V0.5H58"/>

		<path id="path4849" fill="none" stroke="#000000" stroke-width="0.9023" d="
		M36.4,23.3h178"/>
	<rect id="rect3145-5-5" x="136.5" y="0.5" fill="none" stroke="#000000" stroke-width="0.9049" width="78.1" height="789"/>
	<g id="g5007" transform="matrix(0.90227422,0,0,0.90227422,-413.43513,17.665705)">
		<rect id="rect4982" x="523.1" y="169.5" fill="#FF0000" width="86.6" height="16.4"/>
		<path id="path5005" opacity="0.4864" fill="#FFFFFF" enable-background="new    " d="
			M552.9,169.2h24.8l10.1,17.1l-43.8-0.2L552.9,169.2z"/>
	</g>
	<g id="g4969" transform="matrix(0.90227422,0,0,0.90227422,-413.57861,17.922193)">

			<linearGradient id="path4597-0-6-9_1_" gradientUnits="userSpaceOnUse" x1="1039.2942" y1="-913.7356" x2="1039.2942" y2="-895.3539" gradientTransform="matrix(0.9001 6.266455e-02 -6.266455e-02 0.9001 -424.0944 919.4007)">
			<stop  offset="0" style="stop-color:#B3B3B3"/>
			<stop  offset="1" style="stop-color:#B3B3B3;stop-opacity:0"/>
		</linearGradient>
		<path id="path4597-0-6-9" fill="url(#path4597-0-6-9_1_)" d="
			M565,147.6l36.5,59.1c-22.7,27.4-68.2,12.3-72,3L565,147.6z"/>

			<linearGradient id="path4597-4-9_1_" gradientUnits="userSpaceOnUse" x1="1082.537" y1="573.7827" x2="1082.537" y2="592.1643" gradientTransform="matrix(0.9023 0 0 -0.9023 -415.4491 652.1882)">
			<stop  offset="0" style="stop-color:#B3B3B3"/>
			<stop  offset="1" style="stop-color:#B3B3B3;stop-opacity:0"/>
		</linearGradient>
		<path id="path4597-4-9" fill="url(#path4597-4-9_1_)" d="
			M564.6,147.9l27.9-52.8c-20.8-28.9-58-16.9-62.4-7.8L564.6,147.9z"/>
		<path id="path3338-4-6-0" fill="none" stroke="#000000" stroke-width="1.5664" d="M526.7,148.6
			h77.5"/>

			<path id="path3109-23-61-8-8-3" stroke="#FFFFFF" stroke-miterlimit="10" d="
			M562.1,114.3l-2,0l4.2-8.9l4.4,8.7l-2.1,0l0.3,24.1l-4.6,0.1L562.1,114.3z"/>

			<path id="path3109-23-61-1-6-9-0" stroke="#FFFFFF" stroke-miterlimit="10" d="
			M567.7,178.5l2,0l-4.2,8.9l-4.4-8.7l2.1,0l-0.3-24.1l4.6-0.1L567.7,178.5z"/>

			<path id="path3400-5-8-3" fill="none" stroke="#000000" stroke-width="1.5664" stroke-dasharray="1.5664,3.1328" d="
			M543.7,186.9l41.3-77.8"/>

			<path id="path3400-7-0-3-5" fill="none" stroke="#000000" stroke-width="1.5664" stroke-dasharray="1.5664,3.1328" d="
			M543.7,111.4l44.9,75.7"/>
	</g>
	<text transform="matrix(1 0 0 1 40.9439 180.8664)" fill="#FFFFFF" font-family="'HelveticaNeue'" font-size="8.1205">297</text>
	<rect id="rect3145-5" x="58.4" y="0.5" fill="none" stroke="#000000" stroke-width="0.9049" width="78.1" height="789"/>

		<path id="path5822-3" fill="#808080" stroke="#808080" stroke-width="1.8045" d="
		M98.4,606.2v32.7"/>

		<path id="path6268-2" fill="#808080" stroke="#808080" stroke-width="0.9023" d="
		M98.3,644.2l3.2-7.1l-3.1,2.2l-3-2L98.3,644.2z"/>
	<text transform="matrix(1 0 0 1 40.4577 596.2219)" fill="#FFFFFF" font-family="'HelveticaNeue'" font-size="8.1205">425</text>

		<path id="path5822-3-4" fill="#808080" stroke="#808080" stroke-width="1.8045" d="
		M98.6,515.5v-32.7"/>

		<path id="path6268-2-8" fill="#808080" stroke="#808080" stroke-width="0.9023" d="
		M98.7,477.5l-3.2,7.1l3.1-2.2l3,2L98.7,477.5z"/>
</g>
<g id="TEXT">
	<rect x="139.7" y="24.7" fill="none" width="98.3" height="203.9"/>
	<text transform="matrix(1 0 0 1 139.7325 31.8114)"><tspan x="0" y="0" fill="#FFFFFF" font-family="'HelveticaNeue'" font-size="10">The Variscan ceases, </tspan><tspan x="0" y="12" fill="#FFFFFF" font-family="'HelveticaNeue'" font-size="10">allowing the region to </tspan><tspan x="0" y="24" fill="#FFFFFF" font-family="'HelveticaNeue'" font-size="10">relax, and reacts with </tspan><tspan x="0" y="36" fill="#FFFFFF" font-family="'HelveticaNeue'" font-size="10">N-S oriented extension. </tspan><tspan x="0" y="48" fill="#FFFFFF" font-family="'HelveticaNeue'" font-size="10">This gives opportunity </tspan><tspan x="0" y="60" fill="#FFFFFF" font-family="'HelveticaNeue'" font-size="10">for the Whin Sill to </tspan><tspan x="0" y="72" fill="#FFFFFF" font-family="'HelveticaNeue'" font-size="10">intrude across northern </tspan><tspan x="0" y="84" fill="#FFFFFF" font-family="'HelveticaNeue'" font-size="10">England with the input </tspan><tspan x="0" y="96" fill="#FFFFFF" font-family="'HelveticaNeue'" font-size="10">of mineralising fluids, </tspan><tspan x="0" y="108" fill="#FFFFFF" font-family="'HelveticaNeue'" font-size="10">forming the North </tspan><tspan x="0" y="120" fill="#FFFFFF" font-family="'HelveticaNeue'" font-size="10">Pennine ore field.</tspan></text>
	<rect x="139.7" y="201.7" fill="none" width="98.3" height="46.8"/>
	<text transform="matrix(1 0 0 1 139.7325 208.8329)"><tspan x="0" y="0" fill="#FFFFFF" font-family="'HelveticaNeue'" font-size="10">The Variscan Orogeny </tspan><tspan x="0" y="12" fill="#FFFFFF" font-family="'HelveticaNeue'" font-size="10">inverts extensional </tspan><tspan x="0" y="24" fill="#FFFFFF" font-family="'HelveticaNeue'" font-size="10">faults, constricting the </tspan><tspan x="0" y="36" fill="#FFFFFF" font-family="'HelveticaNeue'" font-size="10">area.</tspan></text>
	<rect x="139.7" y="285.2" fill="none" width="98.3" height="46.8"/>
	<text transform="matrix(1 0 0 1 139.7325 292.3058)"><tspan x="0" y="0" fill="#FFFFFF" font-family="'HelveticaNeue'" font-size="10">Early Carboniferous </tspan><tspan x="0" y="12" fill="#FFFFFF" font-family="'HelveticaNeue'" font-size="10">extension opens up </tspan><tspan x="0" y="24" fill="#FFFFFF" font-family="'HelveticaNeue'" font-size="10">sedimentary basins </tspan><tspan x="0" y="36" fill="#FFFFFF" font-family="'HelveticaNeue'" font-size="10">across the region.</tspan></text>
	<rect x="139.7" y="475.8" fill="none" width="98.3" height="87.6"/>
	<text transform="matrix(1 0 0 1 139.7325 482.8905)"><tspan x="0" y="0" fill="#FFFFFF" font-family="'HelveticaNeue'" font-size="10">The Caledonian </tspan><tspan x="0" y="12" fill="#FFFFFF" font-family="'HelveticaNeue'" font-size="10">Orogeny forms sinistral </tspan><tspan x="0" y="24" fill="#FFFFFF" font-family="'HelveticaNeue'" font-size="10">transpressional faults </tspan><tspan x="0" y="36" fill="#FFFFFF" font-family="'HelveticaNeue'" font-size="10">due to pre-existing ENE </tspan><tspan x="0" y="48" fill="#FFFFFF" font-family="'HelveticaNeue'" font-size="10">structures. The </tspan><tspan x="0" y="60" fill="#FFFFFF" font-family="'HelveticaNeue'" font-size="10">Weardale Granite </tspan><tspan x="0" y="72" fill="#FFFFFF" font-family="'HelveticaNeue'" font-size="10">intrudes the slates.</tspan></text>
	<rect x="139.7" y="702.4" fill="none" width="98.3" height="87.6"/>
	<text transform="matrix(1 0 0 1 139.7325 709.4977)"><tspan x="0" y="0" fill="#FFFFFF" font-family="'HelveticaNeue'" font-size="10">Mud and silt is </tspan><tspan x="0" y="12" fill="#FFFFFF" font-family="'HelveticaNeue'" font-size="10">deposited to be </tspan><tspan x="0" y="24" fill="#FFFFFF" font-family="'HelveticaNeue'" font-size="10">metamorphosed into </tspan><tspan x="0" y="36" fill="#FFFFFF" font-family="'HelveticaNeue'" font-size="10">slate, forming the </tspan><tspan x="0" y="48" fill="#FFFFFF" font-family="'HelveticaNeue'" font-size="10">Skiddaw Slate Group.</tspan></text>
</g>
</svg>
